<svg xmlns="http://www.w3.org/2000/svg" viewBox="0 0 900 520" role="img" aria-label="Four friends on a couch">
  <defs>
    <linearGradient id="bg" x1="0" y1="0" x2="0" y2="1">
      <stop offset="0" stop-color="#dce7ff"/>
      <stop offset="1" stop-color="#f3f7ff"/>
    </linearGradient>
  </defs>
  <rect width="900" height="520" fill="url(#bg)"/>
  <rect x="130" y="220" width="640" height="190" rx="36" fill="#6f59d9"/>
  <rect x="100" y="200" width="700" height="70" rx="35" fill="#7d68e8"/>
  <rect x="165" y="300" width="570" height="80" rx="30" fill="#5a47bf"/>

  <circle cx="230" cy="195" r="42" fill="#ffd5c2"/>
  <rect x="190" y="236" width="80" height="80" rx="30" fill="#ffd55a"/>
  <text x="230" y="352" text-anchor="middle" font-size="28" font-family="Arial">John</text>

  <circle cx="390" cy="190" r="42" fill="#ffd7ba"/>
  <rect x="350" y="232" width="80" height="84" rx="30" fill="#ff8eb1"/>
  <text x="390" y="352" text-anchor="middle" font-size="28" font-family="Arial">Saz</text>

  <circle cx="550" cy="195" r="42" fill="#ffd4bf"/>
  <rect x="510" y="236" width="80" height="80" rx="30" fill="#8ddf9b"/>
  <text x="550" y="352" text-anchor="middle" font-size="28" font-family="Arial">Ais</text>

  <circle cx="710" cy="195" r="42" fill="#ffd9c6"/>
  <rect x="670" y="236" width="80" height="80" rx="30" fill="#8dc5ff"/>
  <text x="710" y="352" text-anchor="middle" font-size="28" font-family="Arial">Katie</text>

  <text x="450" y="470" text-anchor="middle" font-size="30" font-family="Arial" fill="#293049">Movie night on the couch</text>
</svg>
